<svg width="564" height="916" viewBox="0 0 422.98 687" xmlns="http://www.w3.org/2000/svg"><g class="graph" transform="translate(4 683)"><path fill="#fff" stroke="transparent" d="M-4 4v-687h422.983V4H-4z"/><g class="node"><ellipse fill="none" stroke="#000" cx="178.804" cy="-634" rx="35.333" ry="18"/><text text-anchor="middle" x="178.804" y="-629.8" font-family="Times,serif" font-size="14">Graph</text></g><g class="node"><ellipse fill="none" stroke="#000" cx="354.876" cy="-661" rx="27.825" ry="18"/><text text-anchor="middle" x="354.876" y="-656.8" font-family="Times,serif" font-size="14">Dict</text></g><g class="edge"><path fill="none" stroke="#000" d="M212.752-639.206l105.202-16.132"/><path stroke="#000" d="M317.528-658.814l10.415 1.944-9.354 4.976-1.061-6.92z"/></g><g class="node"><ellipse fill="none" stroke="#000" cx="354.876" cy="-607" rx="45.227" ry="18"/><text text-anchor="middle" x="354.876" y="-602.8" font-family="Times,serif" font-size="14">DotLang</text></g><g class="edge"><path fill="none" stroke="#000" d="M212.752-628.794l89.58 13.737"/><path stroke="#000" d="M302.956-618.503l9.354 4.976-10.415 1.943 1.061-6.919z"/></g><g class="node"><ellipse fill="none" stroke="#000" cx="31.419" cy="-310" rx="31.339" ry="18"/><text text-anchor="middle" x="31.419" y="-305.8" font-family="Times,serif" font-size="14">Main</text></g><g class="edge"><path fill="none" stroke="#000" d="M33.25-328.375C39.39-386.514 61.023-565.098 98.84-607c9.231-10.229 22.47-16.586 35.526-20.536"/><path stroke="#000" d="M133.685-630.975l10.56.864-8.794 5.91-1.766-6.774z"/></g><g class="node"><ellipse fill="none" stroke="#000" cx="178.804" cy="-580" rx="52.165" ry="18"/><text text-anchor="middle" x="178.804" y="-575.8" font-family="Times,serif" font-size="14">Cli.Option</text></g><g class="edge"><path fill="none" stroke="#000" d="M34.222-328.205C42.355-378.835 67.39-519.772 98.84-553c6.361-6.721 14.45-11.77 23.028-15.56"/><path stroke="#000" d="M120.719-571.869l10.59-.333-8.072 6.864-2.518-6.531z"/></g><g class="node"><ellipse fill="none" stroke="#000" cx="178.804" cy="-526" rx="79.93" ry="18"/><text text-anchor="middle" x="178.804" y="-521.8" font-family="Times,serif" font-size="14">Cli.OptionsParser</text></g><g class="edge"><path fill="none" stroke="#000" d="M32.741-328.106C36.425-365.336 50.023-451.008 98.84-499c3.757-3.693 8.035-6.882 12.615-9.634"/><path stroke="#000" d="M110.093-511.872l10.482-1.537-7.236 7.739-3.246-6.202z"/></g><g class="node"><ellipse fill="none" stroke="#000" cx="178.804" cy="-472" rx="58.524" ry="18"/><text text-anchor="middle" x="178.804" y="-467.8" font-family="Times,serif" font-size="14">Cli.Program</text></g><g class="edge"><path fill="none" stroke="#000" d="M35.668-328.046c7.692-28.795 26.627-85.12 63.17-116.954 6.206-5.406 13.538-9.739 21.202-13.21"/><path stroke="#000" d="M118.919-461.532l10.583-.499-7.962 6.99-2.621-6.49z"/></g><g class="node"><ellipse fill="none" stroke="#000" cx="178.804" cy="-418" rx="53.846" ry="18"/><text text-anchor="middle" x="178.804" y="-413.8" font-family="Times,serif" font-size="14">Elm.Parser</text></g><g class="edge"><path fill="none" stroke="#000" d="M41.695-327.29C53.384-345.56 74.093-374.03 98.84-391c7.892-5.413 16.962-9.82 26.096-13.385"/><path stroke="#000" d="M123.834-407.709l10.595-.091-8.225 6.678-2.37-6.587z"/></g><g class="node"><ellipse fill="none" stroke="#000" cx="178.804" cy="-364" rx="62.034" ry="18"/><text text-anchor="middle" x="178.804" y="-359.8" font-family="Times,serif" font-size="14">Elm.RawFile</text></g><g class="edge"><path fill="none" stroke="#000" d="M56.902-320.591C69.465-325.714 84.88-331.853 98.84-337c9.183-3.386 19.018-6.844 28.54-10.104"/><path stroke="#000" d="M126.553-350.52l10.594.1-8.344 6.528-2.25-6.628z"/></g><g class="node"><ellipse fill="none" stroke="#000" cx="178.804" cy="-310" rx="79.899" ry="18"/><text text-anchor="middle" x="178.804" y="-305.8" font-family="Times,serif" font-size="14">Elm.Syntax.Node</text></g><g class="edge"><path fill="none" stroke="#000" d="M63.037-310h25.954"/><path stroke="#000" d="M89.094-313.5l10 3.5-10 3.5v-7z"/></g><g class="node"><ellipse fill="none" stroke="#000" cx="354.876" cy="-245" rx="60.215" ry="18"/><text text-anchor="middle" x="354.876" y="-240.8" font-family="Times,serif" font-size="14">Json.Decode</text></g><g class="edge"><path fill="none" stroke="#000" d="M55.92-298.58c12.587 5.45 28.313 11.63 42.919 15.58 62.425 16.883 135.574 26.793 187.664 32.234"/><path stroke="#000" d="M287.036-254.23l9.595 4.493-10.302 2.471.707-6.964z"/></g><g class="node"><ellipse fill="none" stroke="#000" cx="354.876" cy="-172" rx="59.654" ry="18"/><text text-anchor="middle" x="354.876" y="-167.8" font-family="Times,serif" font-size="14">Json.Encode</text></g><g class="edge"><path fill="none" stroke="#000" d="M35.785-292.162c7.668 27.09 26.347 77.907 63.054 101.162 58.398 36.997 140.014 36.139 195.28 29.715"/><path stroke="#000" d="M293.762-164.768l10.358 2.226-9.486 4.72-.872-6.946z"/></g><g class="node"><ellipse fill="none" stroke="#000" cx="178.804" cy="-218" rx="54.428" ry="18"/><text text-anchor="middle" x="178.804" y="-213.8" font-family="Times,serif" font-size="14">Native.File</text></g><g class="edge"><path fill="none" stroke="#000" d="M46.243-294.017C59.14-280.838 78.85-262.364 98.84-250c9.737 6.023 20.804 11.306 31.533 15.752"/><path stroke="#000" d="M131.667-237.499l8.005 6.941-10.586-.434 2.581-6.507z"/></g><g class="node"><ellipse fill="none" stroke="#000" cx="178.804" cy="-126" rx="54.996" ry="18"/><text text-anchor="middle" x="178.804" y="-121.8" font-family="Times,serif" font-size="14">Native.Log</text></g><g class="edge"><path fill="none" stroke="#000" d="M34.784-291.996c6.745 31.328 24.77 96.132 64.055 133.996 7.506 7.235 16.855 12.902 26.485 17.32"/><path stroke="#000" d="M126.71-143.895l7.884 7.077-10.577-.616 2.692-6.461z"/></g><g class="node"><ellipse fill="none" stroke="#000" cx="178.804" cy="-72" rx="35.328" ry="18"/><text text-anchor="middle" x="178.804" y="-67.8" font-family="Times,serif" font-size="14">Parser</text></g><g class="edge"><path fill="none" stroke="#000" d="M35.02-291.895C44.462-246.078 71.128-127.168 98.839-99c9.58 9.739 22.79 15.965 35.713 19.946"/><path stroke="#000" d="M135.567-82.406l8.747 5.98-10.566.78 1.819-6.76z"/></g><g class="node"><ellipse fill="none" stroke="#000" cx="178.804" cy="-18" rx="44.659" ry="18"/><text text-anchor="middle" x="178.804" y="-13.8" font-family="Times,serif" font-size="14">Platform</text></g><g class="edge"><path fill="none" stroke="#000" d="M33.782-291.72C41.073-237.942 64.805-81.743 98.839-45c7.47 8.066 17.432 13.723 27.781 17.69"/><path stroke="#000" d="M127.796-30.607l8.378 6.486-10.594.154 2.216-6.64z"/></g><g class="edge"><path fill="none" stroke="#000" d="M228.318-225.593l62.813-9.632"/><path stroke="#000" d="M290.695-238.699l10.415 1.944-9.354 4.975-1.061-6.919z"/></g><g class="edge"><path fill="none" stroke="#000" d="M221.426-206.865l78.324 20.463"/><path stroke="#000" d="M300.778-189.75l8.79 5.913-10.56.859 1.77-6.773z"/></g><g class="edge"><path fill="none" stroke="#000" d="M221.876-137.253l78.138-20.414"/><path stroke="#000" d="M299.232-161.08l10.56.859-8.79 5.914-1.77-6.773z"/></g></g></svg>