<svg width="433pt" height="808" viewBox="0 0 433.19 606" xmlns="http://www.w3.org/2000/svg"><g class="graph" transform="translate(4 602)"><path fill="#fff" stroke="transparent" d="M-4 4v-606h433.187V4H-4z"/><g class="node"><ellipse fill="none" stroke="#000" cx="31.419" cy="-287" rx="31.339" ry="18"/><text text-anchor="middle" x="31.419" y="-282.8" font-family="Times,serif" font-size="14">Main</text></g><g class="node"><ellipse fill="none" stroke="#000" cx="183.905" cy="-580" rx="27.825" ry="18"/><text text-anchor="middle" x="183.905" y="-575.8" font-family="Times,serif" font-size="14">Dict</text></g><g class="edge"><path fill="none" stroke="#000" d="M33.69-304.995C40.807-358.693 64.283-516.339 98.84-553c12.233-12.979 30.664-19.745 47.246-23.261"/><path stroke="#000" d="M145.638-579.737l10.46 1.68-9.225 5.21-1.235-6.89z"/></g><g class="node"><ellipse fill="none" stroke="#000" cx="183.905" cy="-526" rx="45.227" ry="18"/><text text-anchor="middle" x="183.905" y="-521.8" font-family="Times,serif" font-size="14">DotLang</text></g><g class="edge"><path fill="none" stroke="#000" d="M34.978-305.22C44.321-351.322 70.77-470.946 98.838-499c8.649-8.643 20.047-14.523 31.679-18.522"/><path stroke="#000" d="M129.703-520.932l10.584.474-8.57 6.23-2.014-6.704z"/></g><g class="node"><ellipse fill="none" stroke="#000" cx="183.905" cy="-472" rx="53.846" ry="18"/><text text-anchor="middle" x="183.905" y="-467.8" font-family="Times,serif" font-size="14">Elm.Parser</text></g><g class="edge"><path fill="none" stroke="#000" d="M34.097-304.978C39.897-337.599 56.674-406.7 98.839-445c7.57-6.876 16.89-12.001 26.556-15.821"/><path stroke="#000" d="M124.529-464.226l10.595.003-8.285 6.605-2.31-6.608z"/></g><g class="node"><ellipse fill="none" stroke="#000" cx="183.905" cy="-418" rx="62.034" ry="18"/><text text-anchor="middle" x="183.905" y="-413.8" font-family="Times,serif" font-size="14">Elm.RawFile</text></g><g class="edge"><path fill="none" stroke="#000" d="M38.404-304.789c9.981-23.163 30.492-63.378 60.435-86.211 7.072-5.393 15.25-9.725 23.68-13.2"/><path stroke="#000" d="M121.508-407.559l10.593-.212-8.148 6.772-2.445-6.56z"/></g><g class="node"><ellipse fill="none" stroke="#000" cx="183.905" cy="-364" rx="85.133" ry="18"/><text text-anchor="middle" x="183.905" y="-359.8" font-family="Times,serif" font-size="14">Elm.Syntax.Import</text></g><g class="edge"><path fill="none" stroke="#000" d="M48.66-302.31C61.688-313.225 80.415-327.578 98.84-337c6.887-3.522 14.323-6.697 21.831-9.527"/><path stroke="#000" d="M119.59-349.857l10.594-.07-8.239 6.662-2.355-6.592z"/></g><g class="node"><ellipse fill="none" stroke="#000" cx="183.905" cy="-310" rx="79.899" ry="18"/><text text-anchor="middle" x="183.905" y="-305.8" font-family="Times,serif" font-size="14">Elm.Syntax.Node</text></g><g class="edge"><path fill="none" stroke="#000" d="M61.91-291.6l45.586-6.875"/><path stroke="#000" d="M107.132-301.96l10.41 1.97-9.365 4.952-1.045-6.922z"/></g><g class="node"><ellipse fill="none" stroke="#000" cx="365.079" cy="-245" rx="60.215" ry="18"/><text text-anchor="middle" x="365.079" y="-240.8" font-family="Times,serif" font-size="14">Json.Decode</text></g><g class="edge"><path fill="none" stroke="#000" d="M62.211-283.124l237.163 29.853"/><path stroke="#000" d="M300.17-256.698l9.485 4.721-10.36 2.224.875-6.945z"/></g><g class="node"><ellipse fill="none" stroke="#000" cx="365.079" cy="-172" rx="59.654" ry="18"/><text text-anchor="middle" x="365.079" y="-167.8" font-family="Times,serif" font-size="14">Json.Encode</text></g><g class="edge"><path fill="none" stroke="#000" d="M38.246-269.132C47.934-246.53 67.996-208.451 98.84-191c62.553 35.392 147.035 34.874 203.914 28.967"/><path stroke="#000" d="M302.712-165.55l10.329 2.359-9.546 4.597-.783-6.957z"/></g><g class="node"><ellipse fill="none" stroke="#000" cx="183.905" cy="-218" rx="54.428" ry="18"/><text text-anchor="middle" x="183.905" y="-213.8" font-family="Times,serif" font-size="14">Native.File</text></g><g class="edge"><path fill="none" stroke="#000" d="M53.483-273.853C66.456-266.388 83.311-257.138 98.84-250c11.878 5.46 24.978 10.738 37.264 15.379"/><path stroke="#000" d="M137.586-237.804l8.158 6.76-10.593-.197 2.435-6.563z"/></g><g class="node"><ellipse fill="none" stroke="#000" cx="183.905" cy="-126" rx="54.996" ry="18"/><text text-anchor="middle" x="183.905" y="-121.8" font-family="Times,serif" font-size="14">Native.Log</text></g><g class="edge"><path fill="none" stroke="#000" d="M36.292-268.99C44.638-241.4 64.21-188.65 98.839-158c8.682 7.684 19.387 13.593 30.24 18.113"/><path stroke="#000" d="M130.505-143.089l8.102 6.827-10.59-.284 2.488-6.543z"/></g><g class="node"><ellipse fill="none" stroke="#000" cx="183.905" cy="-72" rx="35.328" ry="18"/><text text-anchor="middle" x="183.905" y="-67.8" font-family="Times,serif" font-size="14">Parser</text></g><g class="edge"><path fill="none" stroke="#000" d="M32.702-268.916C36.312-231.743 49.778-146.279 98.839-99c10.969 10.57 26.058 17.004 40.486 20.92"/><path stroke="#000" d="M140.226-81.464l8.923 5.711-10.537 1.1 1.614-6.811z"/></g><g class="node"><ellipse fill="none" stroke="#000" cx="183.905" cy="-18" rx="44.659" ry="18"/><text text-anchor="middle" x="183.905" y="-13.8" font-family="Times,serif" font-size="14">Platform</text></g><g class="edge"><path fill="none" stroke="#000" d="M34.202-268.84C42.282-218.34 67.191-77.798 98.84-45c8.574 8.885 20.052 14.855 31.797 18.863"/><path stroke="#000" d="M131.913-29.409l8.592 6.199-10.582.512 1.99-6.71z"/></g><g class="edge"><path fill="none" stroke="#000" d="M233.412-225.378l67.737-10.095"/><path stroke="#000" d="M300.774-238.955l10.407 1.987-9.375 4.936-1.031-6.923z"/></g><g class="edge"><path fill="none" stroke="#000" d="M227.301-206.982l82.027 20.827"/><path stroke="#000" d="M310.36-189.505l8.83 5.854-10.553.931 1.722-6.785z"/></g><g class="edge"><path fill="none" stroke="#000" d="M227.301-137.018l82.027-20.827"/><path stroke="#000" d="M308.637-161.28l10.554.931-8.832 5.853-1.722-6.784z"/></g></g></svg>