<svg width="422pt" height="700" viewBox="0 0 422.45 525" xmlns="http://www.w3.org/2000/svg"><g class="graph" transform="translate(4 521)"><path fill="#fff" stroke="transparent" d="M-4 4v-525h422.452V4H-4z"/><g class="node"><ellipse fill="none" stroke="#000" cx="178.538" cy="-472" rx="35.333" ry="18"/><text text-anchor="middle" x="178.538" y="-467.8" font-family="Times,serif" font-size="14">Graph</text></g><g class="node"><ellipse fill="none" stroke="#000" cx="354.345" cy="-499" rx="27.825" ry="18"/><text text-anchor="middle" x="354.345" y="-494.8" font-family="Times,serif" font-size="14">Dict</text></g><g class="edge"><path fill="none" stroke="#000" d="M212.435-477.206l104.766-16.09"/><path stroke="#000" d="M316.76-496.769l10.416 1.942-9.353 4.977-1.062-6.919z"/></g><g class="node"><ellipse fill="none" stroke="#000" cx="354.345" cy="-445" rx="45.227" ry="18"/><text text-anchor="middle" x="354.345" y="-440.8" font-family="Times,serif" font-size="14">DotLang</text></g><g class="edge"><path fill="none" stroke="#000" d="M212.435-466.794l89.446 13.737"/><path stroke="#000" d="M302.49-456.505l9.353 4.978-10.416 1.941 1.063-6.919z"/></g><g class="node"><ellipse fill="none" stroke="#000" cx="31.419" cy="-241" rx="31.339" ry="18"/><text text-anchor="middle" x="31.419" y="-236.8" font-family="Times,serif" font-size="14">Main</text></g><g class="edge"><path fill="none" stroke="#000" d="M32.181-259.001C34.814-298.271 46.547-392.317 98.839-445c9.595-9.667 22.773-15.874 35.65-19.859"/><path stroke="#000" d="M133.647-468.257l10.567.764-8.737 5.993-1.83-6.757z"/></g><g class="node"><ellipse fill="none" stroke="#000" cx="178.538" cy="-418" rx="53.846" ry="18"/><text text-anchor="middle" x="178.538" y="-413.8" font-family="Times,serif" font-size="14">Elm.Parser</text></g><g class="edge"><path fill="none" stroke="#000" d="M34.65-258.989C41.184-290.247 58.9-354.713 98.838-391c6.75-6.132 14.946-10.88 23.483-14.552"/><path stroke="#000" d="M121.076-408.823l10.59-.308-8.087 6.845-2.503-6.537z"/></g><g class="node"><ellipse fill="none" stroke="#000" cx="178.538" cy="-364" rx="62.034" ry="18"/><text text-anchor="middle" x="178.538" y="-359.8" font-family="Times,serif" font-size="14">Elm.RawFile</text></g><g class="edge"><path fill="none" stroke="#000" d="M39.374-258.444C50.001-279.888 70.796-316.008 98.84-337c6.332-4.74 13.55-8.683 20.997-11.953"/><path stroke="#000" d="M118.756-352.29l10.585-.456-7.99 6.957-2.595-6.502z"/></g><g class="node"><ellipse fill="none" stroke="#000" cx="178.538" cy="-310" rx="79.899" ry="18"/><text text-anchor="middle" x="178.538" y="-305.8" font-family="Times,serif" font-size="14">Elm.Syntax.Node</text></g><g class="edge"><path fill="none" stroke="#000" d="M53.543-254.019C66.535-261.442 83.39-270.692 98.839-278c9.199-4.352 19.157-8.657 28.817-12.632"/><path stroke="#000" d="M126.594-293.978l10.583-.509-7.956 6.997-2.627-6.488z"/></g><g class="node"><ellipse fill="none" stroke="#000" cx="354.345" cy="-245" rx="60.215" ry="18"/><text text-anchor="middle" x="354.345" y="-240.8" font-family="Times,serif" font-size="14">Json.Decode</text></g><g class="edge"><path fill="none" stroke="#000" d="M62.618-243.238c11.392-.714 24.383-1.411 36.22-1.762 62.534-1.853 133.714-1.665 185.034-1.121"/><path stroke="#000" d="M284.227-249.618l9.96 3.613-10.04 3.387.08-7z"/></g><g class="node"><ellipse fill="none" stroke="#000" cx="354.345" cy="-172" rx="59.654" ry="18"/><text text-anchor="middle" x="354.345" y="-167.8" font-family="Times,serif" font-size="14">Json.Encode</text></g><g class="edge"><path fill="none" stroke="#000" d="M47.02-225.348c12.754 11.71 31.878 26.93 51.819 34.348 60.58 22.538 134.71 25.612 187.489 24.056"/><path stroke="#000" d="M286.47-170.451l10.119 3.138-9.868 3.857-.252-6.995z"/></g><g class="node"><ellipse fill="none" stroke="#000" cx="178.538" cy="-218" rx="54.428" ry="18"/><text text-anchor="middle" x="178.538" y="-213.8" font-family="Times,serif" font-size="14">Native.File</text></g><g class="edge"><path fill="none" stroke="#000" d="M61.903-236.234l57.255 8.95"/><path stroke="#000" d="M119.934-230.705l9.34 5.003-10.421 1.913 1.08-6.916z"/></g><g class="node"><ellipse fill="none" stroke="#000" cx="178.538" cy="-126" rx="54.996" ry="18"/><text text-anchor="middle" x="178.538" y="-121.8" font-family="Times,serif" font-size="14">Native.Log</text></g><g class="edge"><path fill="none" stroke="#000" d="M41.573-223.883C53.302-205.4 74.183-176.175 98.84-158c8.64 6.37 18.724 11.687 28.756 16.04"/><path stroke="#000" d="M129.202-145.085l7.947 7.007-10.582-.522 2.635-6.485z"/></g><g class="node"><ellipse fill="none" stroke="#000" cx="178.538" cy="-72" rx="35.328" ry="18"/><text text-anchor="middle" x="178.538" y="-67.8" font-family="Times,serif" font-size="14">Parser</text></g><g class="edge"><path fill="none" stroke="#000" d="M35.163-223.006C42.312-193.055 60.711-132.921 98.84-99c10.176 9.054 23.511 15.094 36.355 19.115"/><path stroke="#000" d="M136.168-83.247l8.69 6.06-10.572.682 1.882-6.742z"/></g><g class="node"><ellipse fill="none" stroke="#000" cx="178.538" cy="-18" rx="44.659" ry="18"/><text text-anchor="middle" x="178.538" y="-13.8" font-family="Times,serif" font-size="14">Platform</text></g><g class="edge"><path fill="none" stroke="#000" d="M32.481-222.827C35.691-184.571 48.468-95.137 98.84-45c7.769 7.733 17.83 13.252 28.173 17.191"/><path stroke="#000" d="M128.162-31.114l8.37 6.497-10.595.14 2.225-6.637z"/></g><g class="edge"><path fill="none" stroke="#000" d="M227.978-225.593l62.718-9.632"/><path stroke="#000" d="M290.244-238.696l10.415 1.94-9.352 4.978-1.063-6.918z"/></g><g class="edge"><path fill="none" stroke="#000" d="M221.545-206.747l77.733 20.339"/><path stroke="#000" d="M300.231-189.777l8.788 5.917-10.56.855 1.772-6.772z"/></g><g class="edge"><path fill="none" stroke="#000" d="M221.545-137.253l77.733-20.339"/><path stroke="#000" d="M298.459-160.995l10.56.855-8.788 5.917-1.772-6.772z"/></g></g></svg>