<svg width="367pt" height="611pt" viewBox="0 0 367.11 611" xmlns="http://www.w3.org/2000/svg"><g class="graph" transform="translate(4 607)"><path fill="#fff" stroke="transparent" d="M-4 4v-611h367.11V4H-4z"/><g class="node"><ellipse fill="none" stroke="#000" cx="166.79" cy="-558" rx="32.42" ry="18"/><text text-anchor="middle" x="166.79" y="-553.8" font-family="Times,serif" font-size="14">Graph</text></g><g class="node"><ellipse fill="none" stroke="#000" cx="317.57" cy="-585" rx="27" ry="18"/><text text-anchor="middle" x="317.57" y="-580.8" font-family="Times,serif" font-size="14">Dict</text></g><g class="edge"><path fill="none" stroke="#000" d="M197.54-563.4l83.77-15.2"/><path stroke="#000" d="M280.85-582.08l10.47 1.66-9.22 5.23-1.25-6.89z"/></g><g class="node"><ellipse fill="none" stroke="#000" cx="317.57" cy="-531" rx="41.59" ry="18"/><text text-anchor="middle" x="317.57" y="-526.8" font-family="Times,serif" font-size="14">DotLang</text></g><g class="edge"><path fill="none" stroke="#000" d="M197.54-552.6l71.29 12.94"/><path stroke="#000" d="M269.71-543.06l9.22 5.23-10.47 1.66 1.25-6.89z"/></g><g class="node"><ellipse fill="none" stroke="#000" cx="28.77" cy="-288" rx="28.55" ry="18"/><text text-anchor="middle" x="28.77" y="-283.8" font-family="Times,serif" font-size="14">Main</text></g><g class="edge"><path fill="none" stroke="#000" d="M29.21-306.16c-.37-44.28 4.83-158.99 64.34-224.84 8.41-9.31 20.35-15.43 32.11-19.43"/><path stroke="#000" d="M124.82-553.84l10.59.51-8.59 6.2-2-6.71z"/></g><g class="node"><ellipse fill="none" stroke="#000" cx="166.79" cy="-504" rx="47.89" ry="18"/><text text-anchor="middle" x="166.79" y="-499.8" font-family="Times,serif" font-size="14">Cli.Option</text></g><g class="edge"><path fill="none" stroke="#000" d="M30.84-305.96C33.97-342.92 46.21-428.11 93.55-477c5.96-6.15 13.45-10.92 21.33-14.6"/><path stroke="#000" d="M113.67-494.89l10.58-.56-7.92 7.04-2.66-6.48z"/></g><g class="node"><ellipse fill="none" stroke="#000" cx="166.79" cy="-450" rx="73.48" ry="18"/><text text-anchor="middle" x="166.79" y="-445.8" font-family="Times,serif" font-size="14">Cli.OptionsParser</text></g><g class="edge"><path fill="none" stroke="#000" d="M33.62-305.9c7.04-28.59 24.63-84.64 59.93-117.1 3.84-3.53 8.19-6.62 12.8-9.31"/><path stroke="#000" d="M104.99-435.54l10.49-1.47-7.29 7.69-3.2-6.22z"/></g><g class="node"><ellipse fill="none" stroke="#000" cx="166.79" cy="-396" rx="53.67" ry="18"/><text text-anchor="middle" x="166.79" y="-391.8" font-family="Times,serif" font-size="14">Cli.Program</text></g><g class="edge"><path fill="none" stroke="#000" d="M39.18-304.83C50.1-322.97 69.7-351.58 93.55-369c6.53-4.77 14.01-8.79 21.61-12.16"/><path stroke="#000" d="M113.87-384.41l10.58-.53-7.94 7.01-2.64-6.48z"/></g><g class="node"><ellipse fill="none" stroke="#000" cx="166.79" cy="-342" rx="49.31" ry="18"/><text text-anchor="middle" x="166.79" y="-337.8" font-family="Times,serif" font-size="14">Elm.Parser</text></g><g class="edge"><path fill="none" stroke="#000" d="M53-298.11c12.05-5.18 27.03-11.51 40.55-16.89 9.04-3.6 18.78-7.34 28.09-10.84"/><path stroke="#000" d="M120.54-329.17l10.59-.22-8.14 6.78-2.45-6.56z"/></g><g class="node"><ellipse fill="none" stroke="#000" cx="166.79" cy="-288" rx="57.05" ry="18"/><text text-anchor="middle" x="166.79" y="-283.8" font-family="Times,serif" font-size="14">Elm.RawFile</text></g><g class="edge"><path fill="none" stroke="#000" d="M57.63-288h41.81"/><path stroke="#000" d="M99.61-291.5l10 3.5-10 3.5v-7z"/></g><g class="node"><ellipse fill="none" stroke="#000" cx="166.79" cy="-234" rx="72.97" ry="18"/><text text-anchor="middle" x="166.79" y="-229.8" font-family="Times,serif" font-size="14">Elm.Syntax.Node</text></g><g class="edge"><path fill="none" stroke="#000" d="M53-277.89c12.05 5.18 27.03 11.51 40.55 16.89 7.17 2.86 14.77 5.8 22.25 8.64"/><path stroke="#000" d="M117.05-255.64l8.12 6.81-10.59-.26 2.47-6.55z"/></g><g class="node"><ellipse fill="none" stroke="#000" cx="166.79" cy="-180" rx="55.1" ry="18"/><text text-anchor="middle" x="166.79" y="-175.8" font-family="Times,serif" font-size="14">Json.Decode</text></g><g class="edge"><path fill="none" stroke="#000" d="M39.18-271.17C50.1-253.03 69.7-224.42 93.55-207c6.31 4.61 13.5 8.52 20.83 11.81"/><path stroke="#000" d="M115.79-198.4l7.91 7.05-10.58-.57 2.67-6.48z"/></g><g class="node"><ellipse fill="none" stroke="#000" cx="166.79" cy="-126" rx="49.8" ry="18"/><text text-anchor="middle" x="166.79" y="-121.8" font-family="Times,serif" font-size="14">Native.File</text></g><g class="edge"><path fill="none" stroke="#000" d="M33.62-270.1c7.04 28.59 24.63 84.64 59.93 117.1 6.09 5.61 13.46 10.08 21.13 13.64"/><path stroke="#000" d="M116.21-142.51l7.91 7.05-10.58-.59 2.67-6.46z"/></g><g class="node"><ellipse fill="none" stroke="#000" cx="166.79" cy="-72" rx="50.27" ry="18"/><text text-anchor="middle" x="166.79" y="-67.8" font-family="Times,serif" font-size="14">Native.Log</text></g><g class="edge"><path fill="none" stroke="#000" d="M30.84-270.04C33.97-233.08 46.21-147.89 93.55-99c5.63 5.82 12.63 10.39 20.04 13.99"/><path stroke="#000" d="M115.29-88.09l7.83 7.13-10.57-.69 2.74-6.44z"/></g><g class="node"><ellipse fill="none" stroke="#000" cx="166.79" cy="-18" rx="32.42" ry="18"/><text text-anchor="middle" x="166.79" y="-13.8" font-family="Times,serif" font-size="14">Parser</text></g><g class="edge"><path fill="none" stroke="#000" d="M29.21-269.84C28.84-225.56 34.04-110.85 93.55-45c8.41 9.31 20.35 15.43 32.11 19.43"/><path stroke="#000" d="M126.82-28.87l8.59 6.2-10.59.51 2-6.71z"/></g></g></svg>
