<svg width="394pt" height="844" viewBox="0 0 394.12 633" xmlns="http://www.w3.org/2000/svg"><g class="graph" transform="translate(4 629)"><path fill="#fff" stroke="transparent" d="M-4 4v-633h394.12V4H-4z"/><g class="node"><ellipse fill="none" stroke="#000" cx="166.79" cy="-580" rx="32.42" ry="18"/><text text-anchor="middle" x="166.79" y="-575.8" font-family="Times,serif" font-size="14">Graph</text></g><g class="node"><ellipse fill="none" stroke="#000" cx="331.07" cy="-607" rx="27" ry="18"/><text text-anchor="middle" x="331.07" y="-602.8" font-family="Times,serif" font-size="14">Dict</text></g><g class="edge"><path fill="none" stroke="#000" d="M197.93-585.02c27.35-4.55 67.7-11.26 96.61-16.07"/><path stroke="#000" d="M294.18-604.58l10.44 1.81-9.29 5.1-1.15-6.91z"/></g><g class="node"><ellipse fill="none" stroke="#000" cx="331.07" cy="-553" rx="41.59" ry="18"/><text text-anchor="middle" x="331.07" y="-548.8" font-family="Times,serif" font-size="14">DotLang</text></g><g class="edge"><path fill="none" stroke="#000" d="M197.93-574.98c23.57 3.92 56.8 9.44 84.04 13.98"/><path stroke="#000" d="M282.79-564.41l9.29 5.09-10.44 1.81 1.15-6.9z"/></g><g class="node"><ellipse fill="none" stroke="#000" cx="28.77" cy="-283" rx="28.55" ry="18"/><text text-anchor="middle" x="28.77" y="-278.8" font-family="Times,serif" font-size="14">Main</text></g><g class="edge"><path fill="none" stroke="#000" d="M31.83-301.18C38.31-355.43 59.87-514.79 93.55-553c8.3-9.42 20.21-15.56 31.97-19.56"/><path stroke="#000" d="M124.7-575.96l10.58.52-8.6 6.19-1.98-6.71z"/></g><g class="node"><ellipse fill="none" stroke="#000" cx="166.79" cy="-526" rx="47.89" ry="18"/><text text-anchor="middle" x="166.79" y="-521.8" font-family="Times,serif" font-size="14">Cli.Option</text></g><g class="edge"><path fill="none" stroke="#000" d="M29.94-301.27C31.3-342.13 40.24-441.79 93.55-499c5.84-6.27 13.27-11.09 21.13-14.79"/><path stroke="#000" d="M113.46-517.08l10.58-.57-7.91 7.05-2.67-6.48z"/></g><g class="node"><ellipse fill="none" stroke="#000" cx="166.79" cy="-472" rx="73.48" ry="18"/><text text-anchor="middle" x="166.79" y="-467.8" font-family="Times,serif" font-size="14">Cli.OptionsParser</text></g><g class="edge"><path fill="none" stroke="#000" d="M32.02-300.94C37.06-333.9 52.27-404.43 93.55-445c3.66-3.6 7.85-6.73 12.33-9.45"/><path stroke="#000" d="M104.3-457.58l10.48-1.6-7.19 7.78-3.29-6.18z"/></g><g class="node"><ellipse fill="none" stroke="#000" cx="166.79" cy="-418" rx="53.67" ry="18"/><text text-anchor="middle" x="166.79" y="-413.8" font-family="Times,serif" font-size="14">Cli.Program</text></g><g class="edge"><path fill="none" stroke="#000" d="M35.96-300.84c9.09-23.73 28.22-65.54 57.59-90.16 5.99-5.02 13-9.15 20.26-12.54"/><path stroke="#000" d="M112.5-406.79l10.57-.66-7.85 7.11-2.72-6.45z"/></g><g class="node"><ellipse fill="none" stroke="#000" cx="166.79" cy="-364" rx="49.31" ry="18"/><text text-anchor="middle" x="166.79" y="-359.8" font-family="Times,serif" font-size="14">Elm.Parser</text></g><g class="edge"><path fill="none" stroke="#000" d="M44.86-298.41C57.1-310.23 75.27-326.29 93.55-337c7.8-4.57 16.52-8.62 25.12-12.09"/><path stroke="#000" d="M117.7-352.46l10.59-.3-8.1 6.84-2.49-6.54z"/></g><g class="node"><ellipse fill="none" stroke="#000" cx="166.79" cy="-310" rx="57.05" ry="18"/><text text-anchor="middle" x="166.79" y="-305.8" font-family="Times,serif" font-size="14">Elm.RawFile</text></g><g class="edge"><path fill="none" stroke="#000" d="M56.32-288.27l51.9-10.3"/><path stroke="#000" d="M107.62-302.02l10.49 1.49-9.13 5.38-1.36-6.87z"/></g><g class="node"><ellipse fill="none" stroke="#000" cx="166.79" cy="-256" rx="72.97" ry="18"/><text text-anchor="middle" x="166.79" y="-251.8" font-family="Times,serif" font-size="14">Elm.Syntax.Node</text></g><g class="edge"><path fill="none" stroke="#000" d="M56.32-277.73c12.43 2.47 27.85 5.53 43.15 8.57"/><path stroke="#000" d="M100.35-272.56l9.13 5.38-10.49 1.49 1.36-6.87z"/></g><g class="node"><ellipse fill="none" stroke="#000" cx="331.07" cy="-191" rx="55.1" ry="18"/><text text-anchor="middle" x="331.07" y="-186.8" font-family="Times,serif" font-size="14">Json.Decode</text></g><g class="edge"><path fill="none" stroke="#000" d="M43.59-267.32c11.94 12.48 30.32 29.29 49.96 38.32 54.68 25.14 123.12 34 172.29 36.95"/><path stroke="#000" d="M266.23-195.53l9.79 4.03-10.17 2.96.38-6.99z"/></g><g class="node"><ellipse fill="none" stroke="#000" cx="331.07" cy="-118" rx="54.62" ry="18"/><text text-anchor="middle" x="331.07" y="-113.8" font-family="Times,serif" font-size="14">Json.Encode</text></g><g class="edge"><path fill="none" stroke="#000" d="M31.77-264.98c4.59 31.82 18.99 97.46 61.78 127.98 52.35 37.34 128.8 36.21 180.49 29.64"/><path stroke="#000" d="M273.65-110.84l10.38 2.1-9.43 4.83-.95-6.93z"/></g><g class="node"><ellipse fill="none" stroke="#000" cx="166.79" cy="-164" rx="49.8" ry="18"/><text text-anchor="middle" x="166.79" y="-159.8" font-family="Times,serif" font-size="14">Native.File</text></g><g class="edge"><path fill="none" stroke="#000" d="M38.7-265.88c10.77 19.22 30.48 50.27 54.85 69.88 7.85 6.32 17.15 11.65 26.42 16.04"/><path stroke="#000" d="M121.44-183.14l7.73 7.25-10.56-.85 2.83-6.4z"/></g><g class="node"><ellipse fill="none" stroke="#000" cx="166.79" cy="-72" rx="50.27" ry="18"/><text text-anchor="middle" x="166.79" y="-67.8" font-family="Times,serif" font-size="14">Native.Log</text></g><g class="edge"><path fill="none" stroke="#000" d="M31.52-264.84c4.32 35.32 18.5 113.93 62.03 160.84 6.51 7.01 14.83 12.58 23.5 16.97"/><path stroke="#000" d="M118.51-90.21l7.64 7.34-10.55-.97 2.91-6.37z"/></g><g class="node"><ellipse fill="none" stroke="#000" cx="166.79" cy="-18" rx="32.42" ry="18"/><text text-anchor="middle" x="166.79" y="-13.8" font-family="Times,serif" font-size="14">Parser</text></g><g class="edge"><path fill="none" stroke="#000" d="M29.33-264.89C29.27-221.27 35.16-109.28 93.55-45c8.44 9.29 20.38 15.4 32.14 19.41"/><path stroke="#000" d="M126.84-28.9l8.59 6.2-10.58.51 1.99-6.71z"/></g><g class="edge"><path fill="none" stroke="#000" d="M212.13-171.38c18.38-3.06 39.96-6.65 59.6-9.91"/><path stroke="#000" d="M271.35-184.78l10.44 1.81-9.29 5.1-1.15-6.91z"/></g><g class="edge"><path fill="none" stroke="#000" d="M206.66-152.98c21.82 6.18 49.31 13.98 72.8 20.63"/><path stroke="#000" d="M280.59-135.66l8.66 6.09-10.57.64 1.91-6.73z"/></g><g class="edge"><path fill="none" stroke="#000" d="M206.66-83.02c21.82-6.18 49.31-13.98 72.8-20.63"/><path stroke="#000" d="M278.68-107.07l10.57.64-8.66 6.09-1.91-6.73z"/></g></g></svg>
